# xmcd
#
# Track frame offsets:
#	150
#	11672
#	24902
#	37337
#	55402
#	66385
#	78330
#	94507
#	107957
#	120665
#	130230
#	141932
#	154752
#	169542
#	181887
#	198135
#	212407
#	223037
#	233292
#	252980
#	268987
#	283590
#	291687
#	300775
#	311375
#	321465
#	333297
#
# Disc length: 4573
#
# Revision: 1
# Processed by: cddbd v1.5.1PL0 Copyright (c) Steve Scherf et al.
# Submitted via: OrangeCD 5.2
# Normalized: r0:DSETVAR1
#
DISCID=8811db1b
DTITLE=Various Artist - Most Wanted Country [CD2]
DYEAR=1995
DGENRE=Country
TTITLE0=Willie Nelson - On The Road Again
TTITLE1=Lynn Anderson - Rose Garden
TTITLE2=Jim Reeves - I Love You Because
TTITLE3=Billy Swan - I Can Help
TTITLE4=Roger Miller - King Of The Road
TTITLE5=Charlie Rich - The Most Beautiful Girl
TTITLE6=Kenny Rogers - Lucille
TTITLE7=John Denver - Annie's Song
TTITLE8=Bobby Bare - Detroit City
TTITLE9=George Jones - The Race Is On
TTITLE10=Tennessee Ernie Ford - Sixteen Tons
TTITLE11=The Browns - The Three Bells
TTITLE12=David Allan Coe - Willie, Waylon And Me
TTITLE13=Hugo Montenegro - The Good, The Bad and The Ugly
TTITLE14=The Charlie Daniels Band - The Devil Went Down To Georgia
TTITLE15=Rank Strangers - Early Morning Rain
TTITLE16=Dave Dudley - Six Days On The Road
TTITLE17=Red Simpson - Truck Drivin' Man
TTITLE18=Marty Robbins - El Paso
TTITLE19=Joe South - Games People Play
TTITLE20=Lorne Greene - Ringo
TTITLE21=John D. Loudmilk - Language Of Love
TTITLE22=Anita Kerr Singers - Night Train To Memphis
TTITLE23=Jim Ed Brown - Pop A Top
TTITLE24=George Hamilton IV - Abilene
TTITLE25=Skeeter Davis - The End Of The World
TTITLE26=Ned Miller - From A Jack To A King
EXTD=
EXTT0=
EXTT1=
EXTT2=
EXTT3=
EXTT4=
EXTT5=
EXTT6=
EXTT7=
EXTT8=
EXTT9=
EXTT10=
EXTT11=
EXTT12=
EXTT13=
EXTT14=
EXTT15=
EXTT16=
EXTT17=
EXTT18=
EXTT19=
EXTT20=
EXTT21=
EXTT22=
EXTT23=
EXTT24=
EXTT25=
EXTT26=
PLAYORDER=
